<?xml version="1.0" encoding="utf-8"?>
<!-- Generator: Adobe Illustrator 23.1.0, SVG Export Plug-In . SVG Version: 6.00 Build 0)  -->
<svg version="1.1" id="Layer_1" xmlns="http://www.w3.org/2000/svg" xmlns:xlink="http://www.w3.org/1999/xlink" x="0px" y="0px"
	 viewBox="0 0 52 57" style="enable-background:new 0 0 52 57;" xml:space="preserve">
<g id="Group_493" transform="translate(-637 -5240)">
	<g id="strategy" transform="translate(639 5242)">
		<path id="Path_527" d="M42.6,12.8h-6.5V3.6c0-1.4-1.2-2.6-2.6-2.6H5.6C4.2,1,3,2.2,3,3.6v37.3c0,1.4,1.2,2.6,2.6,2.6h9.2v6.6
			c0,1.6,1.3,2.9,2.9,2.9h24.9c1.6,0,2.9-1.3,2.9-2.9V15.7C45.5,14.1,44.2,12.8,42.6,12.8z M5.6,3.4h27.9c0.1,0,0.3,0.1,0.3,0.3v4.5
			H23.1c-0.2,0-0.4,0-0.5,0.1l-4.5,2.2l-12.7,0V3.6C5.4,3.5,5.5,3.4,5.6,3.4L5.6,3.4z M5.6,41.2c-0.1,0-0.3-0.1-0.3-0.3V12.8l13,0
			c0.2,0,0.4,0,0.5-0.1l4.5-2.2h10.4v2.4h-7.6c-0.8,0-1.5,0.3-2.1,0.9l-8.4,8.4c-0.5,0.5-0.9,1.3-0.9,2.1v17H5.6z M24.3,16.9v4.9
			c0,0.3-0.2,0.5-0.5,0.5h-4.9L24.3,16.9z M43.2,50.1c0,0.3-0.2,0.5-0.5,0.5H17.7c-0.3,0-0.5-0.2-0.5-0.5V24.6h6.5
			c1.6,0,2.9-1.3,2.9-2.9v-6.6h16c0.3,0,0.5,0.2,0.5,0.5L43.2,50.1z"/>
		<path id="Path_528" d="M24.8,44.7l1.5-1.5c0.4-0.5,0.4-1.2,0-1.7c-0.5-0.4-1.2-0.4-1.6,0l-1.5,1.5l-1.5-1.5
			c-0.4-0.5-1.2-0.5-1.7,0s-0.5,1.2,0,1.7c0,0,0,0,0,0l1.5,1.5l-1.5,1.5c-0.5,0.4-0.5,1.2,0,1.7c0.4,0.5,1.2,0.5,1.7,0c0,0,0,0,0,0
			l1.5-1.5l1.5,1.5c0.5,0.4,1.2,0.4,1.7,0c0.4-0.5,0.4-1.2,0-1.6L24.8,44.7z"/>
		<path id="Path_529" d="M37.3,27c-2,0-3.5,1.6-3.5,3.5s1.6,3.5,3.5,3.5s3.5-1.6,3.5-3.5C40.8,28.6,39.2,27,37.3,27z M37.3,31.7
			c-0.7,0-1.2-0.5-1.2-1.2s0.5-1.2,1.2-1.2c0.7,0,1.2,0.5,1.2,1.2c0,0,0,0,0,0C38.5,31.2,37.9,31.7,37.3,31.7z"/>
		<path id="Path_530" d="M33.7,36.5H29c-1.3,0-2.4-1-2.4-2.3c0-1.3,1-2.4,2.3-2.4c0,0,0.1,0,0.1,0h1.2c0.7,0,1.2-0.5,1.2-1.2
			s-0.5-1.2-1.2-1.2H29c-2.6,0-4.7,2.1-4.7,4.7c0,2.6,2.1,4.7,4.7,4.7h4.7c1.3,0,2.3,1.1,2.3,2.4c0,1.3-1,2.3-2.3,2.3h-5.9
			c-0.7,0-1.2,0.5-1.2,1.2c0,0.7,0.5,1.2,1.2,1.2h5.9c2.6,0,4.7-2.1,4.7-4.7C38.5,38.6,36.3,36.5,33.7,36.5L33.7,36.5z"/>
		<circle id="Ellipse_17" cx="18" cy="7" r="1"/>
		<circle id="Ellipse_18" cx="14" cy="7" r="1"/>
		<circle id="Ellipse_19" cx="9" cy="7" r="1"/>
	</g>
</g>
</svg>
