<?xml version="1.0" encoding="utf-8"?>
<!-- Generator: Adobe Illustrator 23.1.0, SVG Export Plug-In . SVG Version: 6.00 Build 0)  -->
<svg version="1.1" id="Layer_1" xmlns="http://www.w3.org/2000/svg" xmlns:xlink="http://www.w3.org/1999/xlink" x="0px" y="0px"
	 viewBox="0 0 52 57" style="enable-background:new 0 0 52 57;" xml:space="preserve">
<g id="Group_489" transform="translate(-441 -5010)">
	<g id="online-contract" transform="translate(442 5012)">
		<path id="Path_510" d="M46,1H5.3C3.5,1,2,2.5,2,4.3v28.9c0,1.8,1.5,3.3,3.3,3.3h3.8v14.1c0,1.4,1.1,2.5,2.5,2.5h28.1
			c1.4,0,2.5-1.1,2.5-2.5V36.5H46c1.8,0,3.2-1.5,3.3-3.3V4.3C49.3,2.5,47.8,1,46,1z M5.3,3.4H46c0.5,0,0.9,0.4,0.9,0.9c0,0,0,0,0,0
			v3.8H29.2c-0.1,0-0.3,0-0.4,0.1l-6.9,2.3H4.4V4.3C4.4,3.8,4.8,3.4,5.3,3.4L5.3,3.4z M39.8,50.5c0,0.1-0.1,0.1-0.1,0.1c0,0,0,0,0,0
			l-28.2-0.1l0.1-33l28.2,0.1V50.5z M46,34.1h-3.8V17.7c0-1.4-1.1-2.5-2.5-2.5H11.6c-1.4,0-2.5,1.1-2.5,2.5v16.4H5.3
			c-0.5,0-0.9-0.4-0.9-0.9V12.8h17.7c0.1,0,0.3,0,0.4-0.1l6.9-2.3h17.5v22.7C46.9,33.7,46.5,34.1,46,34.1L46,34.1z" fill="#034C8C"/>
		<ellipse id="Ellipse_8" cx="20.3" cy="7" rx="1" ry="1.5"/>
		<circle id="Ellipse_9" cx="14.8" cy="7" r="1.5"/>
		<circle id="Ellipse_10" cx="9.9" cy="7" r="1.5"/>
		<path id="Path_511" d="M15,22.3h7.1c0.7,0,1.2-0.5,1.2-1.2s-0.5-1.2-1.2-1.2H15c-0.7,0-1.2,0.5-1.2,1.2
			C13.8,21.7,14.3,22.3,15,22.3C15,22.3,15,22.3,15,22.3z" fill="#034C8C"/>
		<path id="Path_512" d="M15.1,31.7h21.2c0.7,0,1.2-0.5,1.2-1.2c0-0.7-0.5-1.2-1.2-1.2l0,0H15.1c-0.7,0-1.2,0.5-1.2,1.2
			C13.9,31.2,14.4,31.7,15.1,31.7z" fill="#034C8C"/>
		<path id="Path_513" d="M15.1,27h21.2c0.7,0,1.2-0.5,1.2-1.2c0-0.7-0.5-1.2-1.2-1.2l0,0H15.1c-0.7,0-1.2,0.5-1.2,1.2
			C13.9,26.5,14.4,27,15.1,27z" fill="#034C8C"/>
		<path id="Path_514" d="M33.9,36.4c-2,0-3.6,1.6-3.6,3.6c0,2,1.6,3.6,3.6,3.6c2,0,3.6-1.6,3.6-3.6l0,0C37.5,38,35.9,36.4,33.9,36.4
			z M33.9,41.2c-0.7,0-1.2-0.5-1.2-1.2c0-0.7,0.5-1.2,1.2-1.2c0.7,0,1.2,0.5,1.2,1.2l0,0C35.1,40.6,34.6,41.2,33.9,41.2z" fill="#034C8C"/>
		<path id="Path_515" d="M36.3,45.9h-4.8c-0.7,0-1.2,0.5-1.2,1.2s0.5,1.2,1.2,1.2c0,0,0,0,0,0h4.8c0.7,0,1.2-0.5,1.2-1.2
			S36.9,45.9,36.3,45.9C36.3,45.9,36.3,45.9,36.3,45.9z" fill="#034C8C"/>
	</g>
</g>
</svg>
