<?xml version="1.0" encoding="utf-8"?>
<!-- Generator: Adobe Illustrator 23.1.0, SVG Export Plug-In . SVG Version: 6.00 Build 0)  -->
<svg version="1.1" id="Layer_1" xmlns="http://www.w3.org/2000/svg" xmlns:xlink="http://www.w3.org/1999/xlink" x="0px" y="0px"
	 viewBox="0 0 52 57" style="enable-background:new 0 0 52 57;" xml:space="preserve">
<g id="Group_491" transform="translate(-1174 -5010)">
	<g id="idea" transform="translate(1173 5012)">
		<path id="Path_521" d="M49.8,1H4.2C2.4,1,1,2.4,1,4.2v29.1c0,1.8,1.4,3.2,3.2,3.2c0,0,0,0,0,0h10.4c1.1,2.2,2.7,4.2,4.6,5.9
			c0.5,0.4,0.7,1,0.7,1.6v2.9c0,3.4,2.8,6.2,6.2,6.2h1.8c3.4,0,6.2-2.8,6.2-6.2v-2.9c0-0.6,0.3-1.2,0.7-1.6c1.9-1.6,3.5-3.6,4.6-5.9
			h10.4c1.8,0,3.2-1.4,3.2-3.2l0,0V4.2C53,2.4,51.6,1,49.8,1C49.8,1,49.8,1,49.8,1z M4.2,3.4h45.6c0.5,0,0.8,0.4,0.8,0.8v3.9H30.5
			c-0.1,0-0.2,0-0.3,0l-9.3,2.3H3.4V4.2C3.4,3.7,3.7,3.4,4.2,3.4z M27.9,50.6h-1.8c-1.5,0-2.9-0.9-3.5-2.4h8.9
			C30.8,49.7,29.4,50.6,27.9,50.6z M33.3,40.5c-1,0.8-1.5,2.1-1.6,3.3v2h-3.5V31.7h2.4c0.7,0,1.2-0.5,1.2-1.2c0-0.7-0.5-1.2-1.2-1.2
			h-7.1c-0.7,0-1.2,0.5-1.2,1.2c0,0.7,0.5,1.2,1.2,1.2h2.4v14.2h-3.5v-2c0-1.3-0.6-2.5-1.6-3.3c-2.3-1.9-3.9-4.4-4.9-7.2
			c-0.4-1.3-0.7-2.6-0.7-3.9c0-6.5,5.3-11.8,11.8-11.8s11.8,5.3,11.8,11.8c0,1.3-0.2,2.7-0.7,3.9C37.2,36.1,35.5,38.6,33.3,40.5
			L33.3,40.5z M49.8,34.1h-9.4c0,0,0,0,0-0.1c0.5-1.5,0.8-3.1,0.8-4.7c0-7.8-6.3-14.2-14.2-14.2s-14.2,6.3-14.2,14.2c0,0,0,0,0,0
			c0,1.6,0.3,3.2,0.8,4.7c0,0,0,0,0,0.1H4.2c-0.5,0-0.8-0.4-0.8-0.8V12.8h17.7c0.1,0,0.2,0,0.3,0l9.3-2.3h19.9v22.8
			C50.6,33.7,50.3,34.1,49.8,34.1L49.8,34.1L49.8,34.1z" fill="#034C8C"/>
		<circle id="Ellipse_11" cx="18.5" cy="3.5" r="0.5"/>
		<circle id="Ellipse_12" cx="13.6" cy="3.5" r="0.5"/>
		<circle id="Ellipse_13" cx="4.5" cy="3.5" r="0.5"/>
	</g>
</g>
</svg>
