<?xml version="1.0" encoding="utf-8"?>
<!-- Generator: Adobe Illustrator 23.1.0, SVG Export Plug-In . SVG Version: 6.00 Build 0)  -->
<svg version="1.1" id="Layer_1" xmlns="http://www.w3.org/2000/svg" xmlns:xlink="http://www.w3.org/1999/xlink" x="0px" y="0px"
	 viewBox="0 0 52 57" style="enable-background:new 0 0 52 57;" xml:space="preserve">
<g id="Group_492" transform="translate(-1003 -5247)">
	<g id="Group_190" transform="translate(652 -100)">
		<g id="review" transform="translate(351 5350)">
			<path id="Path_522" d="M44.9,23.5l-2.7-0.4l-1.2-2.5c-0.3-0.6-1.1-0.8-1.7-0.4c-0.2,0.1-0.3,0.3-0.4,0.4l-1.2,2.5l-2.7,0.4
				c-0.6,0.1-1.1,0.7-1,1.3c0,0.3,0.2,0.5,0.3,0.7l2,1.9l-0.5,2.7c-0.1,0.6,0.3,1.2,1,1.4c0.3,0,0.5,0,0.7-0.1l2.4-1.3l2.5,1.3
				c0.6,0.3,1.3,0.1,1.6-0.5c0.1-0.2,0.2-0.5,0.1-0.7l-0.5-2.7l2-1.9c0.5-0.4,0.5-1.2,0-1.7C45.4,23.6,45.1,23.5,44.9,23.5
				L44.9,23.5z M41.5,26.1c-0.3,0.3-0.4,0.7-0.3,1l0.2,1l-0.9-0.5c-0.2-0.1-0.4-0.1-0.5-0.1c-0.2,0-0.4,0-0.5,0.1l-0.9,0.5l0.2-1
				c0.1-0.4-0.1-0.8-0.3-1l-0.7-0.7l1-0.1c0.4-0.1,0.7-0.3,0.9-0.6l0.4-0.9l0.4,0.9c0.2,0.3,0.5,0.6,0.9,0.6l1,0.1L41.5,26.1z" fill="#034C8C"/>
			<path id="Path_523" d="M30.8,23.5l-2.7-0.4l-1.2-2.5c-0.3-0.6-1.1-0.8-1.7-0.4c-0.2,0.1-0.3,0.3-0.4,0.4l-1.2,2.5l-2.7,0.4
				c-0.6,0.1-1.1,0.7-1,1.3c0,0.3,0.2,0.5,0.3,0.7l2,1.9l-0.5,2.7c-0.1,0.6,0.3,1.2,1,1.4c0.3,0,0.5,0,0.7-0.1l2.4-1.3l2.5,1.3
				c0.6,0.3,1.3,0.1,1.6-0.5c0.1-0.2,0.2-0.5,0.1-0.7l-0.5-2.7l2-1.9c0.5-0.4,0.5-1.2,0-1.7C31.3,23.6,31.1,23.5,30.8,23.5
				L30.8,23.5z M27.4,26.1c-0.3,0.3-0.4,0.7-0.3,1l0.2,1l-0.9-0.5c-0.3-0.2-0.7-0.2-1.1,0l-0.9,0.5l0.2-1c0.1-0.4-0.1-0.8-0.3-1
				l-0.7-0.7l1-0.1c0.4-0.1,0.7-0.3,0.9-0.6l0.4-0.9l0.4,0.9c0.2,0.3,0.5,0.6,0.9,0.6l1,0.1L27.4,26.1z" fill="#034C8C"/>
			<path id="Path_524" d="M16.7,23.5L14,23.1l-1.2-2.5c-0.3-0.6-1.1-0.8-1.7-0.4c-0.2,0.1-0.3,0.3-0.4,0.4l-1.2,2.5l-2.7,0.4
				c-0.6,0.1-1.1,0.7-1,1.3c0,0.3,0.2,0.5,0.3,0.7l2,1.9l-0.5,2.7c-0.1,0.6,0.3,1.2,1,1.4c0.3,0,0.5,0,0.7-0.1l2.4-1.3l2.5,1.3
				c0.6,0.3,1.3,0.1,1.6-0.5c0.1-0.2,0.2-0.5,0.1-0.7l-0.5-2.7l2-1.9c0.5-0.5,0.5-1.2,0-1.7C17.2,23.6,17,23.5,16.7,23.5z
				 M13.3,26.1c-0.3,0.3-0.4,0.7-0.3,1l0.2,1l-0.9-0.5c-0.3-0.2-0.7-0.2-1.1,0l-0.9,0.5l0.2-1c0.1-0.4-0.1-0.8-0.3-1l-0.7-0.7l1-0.1
				c0.4-0.1,0.7-0.3,0.9-0.6l0.4-0.9l0.4,0.9c0.2,0.3,0.5,0.6,0.9,0.6l1,0.1L13.3,26.1z" fill="#034C8C"/>
			<path id="Path_525" d="M48.5,15.2h-3.9V2.8c0-1.6-1.3-2.8-2.8-2.8H9.8C8.3,0,7,1.3,7,2.8v12.4H3.1c-1.7,0-3.1,1.4-3.1,3.1v14.9
				c0,1.7,1.4,3.1,3.1,3.1H7v12.4c0,1.6,1.3,2.8,2.8,2.8h31.9c1.6,0,2.8-1.3,2.8-2.8V36.4h3.9c1.7,0,3.1-1.4,3.1-3.1V18.4
				C51.6,16.6,50.2,15.3,48.5,15.2z M9.8,2.3h31.9c0.3,0,0.5,0.2,0.5,0.5V7H29.3c-0.1,0-0.3,0-0.4,0.1l-6.9,2.3H9.4V2.8
				C9.4,2.6,9.6,2.3,9.8,2.3z M9.4,11.7h12.9c0.1,0,0.3,0,0.4-0.1l6.9-2.3h12.7v5.9H9.4V11.7z M42.2,48.8c0,0.3-0.2,0.5-0.5,0.5H9.8
				c-0.3,0-0.5-0.2-0.5-0.5l0,0V36.4h32.8V48.8z M49.3,33.2c0,0.4-0.3,0.8-0.8,0.8l0,0H3.1c-0.4,0-0.8-0.3-0.8-0.8V18.4
				c0-0.4,0.3-0.8,0.8-0.8h45.4c0.4,0,0.8,0.3,0.8,0.8V33.2z" fill="#034C8C"/>
			<ellipse id="Ellipse_14" cx="22.5" cy="5.6" rx="1.5" ry="1"/>
			<ellipse id="Ellipse_15" cx="17.5" cy="5.6" rx="1.5" ry="1"/>
			<ellipse id="Ellipse_16" cx="12.5" cy="5.6" rx="1.5" ry="1"/>
			<path id="Path_526" d="M12.9,46.9h25.8c0.6,0,1.2-0.5,1.2-1.2l0,0v-4.7c0-0.6-0.5-1.2-1.2-1.2H12.9c-0.6,0-1.2,0.5-1.2,1.2l0,0
				v4.7C11.7,46.4,12.3,46.9,12.9,46.9L12.9,46.9z M14.1,42.2h23.5v2.3H14.1V42.2z" fill="#034C8C"/>
		</g>
	</g>
</g>
</svg>
