<?xml version="1.0" encoding="utf-8"?>
<!-- Generator: Adobe Illustrator 23.1.0, SVG Export Plug-In . SVG Version: 6.00 Build 0)  -->
<svg version="1.1" id="Layer_1" xmlns="http://www.w3.org/2000/svg" xmlns:xlink="http://www.w3.org/1999/xlink" x="0px" y="0px"
	 viewBox="0 0 52 57" style="enable-background:new 0 0 52 57;" xml:space="preserve">
<g id="Group_490" transform="translate(-795 -5010)">
	<g id="analysis" transform="translate(796 5012)">
		<path id="Path_516" d="M47.3,1H37.1c-1.5,0-2.8,1.3-2.7,2.9v6.6H4.8c-2.2,0.1-3.9,1.9-3.8,4.1v34.4c-0.1,2.2,1.7,4,3.8,4.1h32.4
			c2.2-0.1,3.9-1.9,3.8-4.1V17.5h6.2c1.5,0,2.8-1.3,2.7-2.9V3.9C50,2.3,48.8,1,47.3,1z M38.9,48.9c0,0.9-0.7,1.7-1.6,1.7H4.8
			c-0.9,0-1.6-0.8-1.6-1.7V14.5c0-0.9,0.7-1.7,1.6-1.7h29.6v1.8c0,1.5,1.2,2.8,2.7,2.9h1.7V48.9z M47.8,14.7c0,0.3-0.2,0.5-0.5,0.5
			c0,0,0,0,0,0H37.1c-0.3,0-0.5-0.2-0.5-0.5V3.9c0-0.3,0.2-0.5,0.5-0.5c0,0,0,0,0,0h10.1c0.3,0,0.5,0.2,0.5,0.5L47.8,14.7z" fill="#034C8C"/>
		<path id="Path_517" d="M43,5.8c-0.4-0.4-1.1-0.4-1.6,0L39.2,8c-0.4,0.4-0.4,1.1,0,1.6s1.1,0.4,1.6,0c0,0,0,0,0,0l0.3-0.3V11
			c0,0.6,0.5,1.1,1.1,1.1s1.1-0.5,1.1-1.1c0,0,0,0,0-0.1V9.3l0.3,0.3c0.4,0.4,1.1,0.4,1.6,0c0.4-0.4,0.4-1.1,0-1.6L43,5.8z" fill="#034C8C"/>
		<path id="Path_518" d="M35.5,37.4h-6.7c-0.6,0-1.1,0.5-1.1,1.1l0,0v8.9c0,0.6,0.5,1.1,1.1,1.1l0,0h6.7c0.6,0,1.1-0.5,1.1-1.1l0,0
			v-8.9C36.6,37.9,36.1,37.4,35.5,37.4L35.5,37.4z M34.4,46.3H30v-6.7h4.5L34.4,46.3z" fill="#034C8C"/>
		<path id="Path_519" d="M24.4,24h-6.7c-0.6,0-1.1,0.5-1.1,1.1l0,0v22.3c0,0.6,0.5,1.1,1.1,1.1h6.7c0.6,0,1.1-0.5,1.1-1.1V25.2
			C25.5,24.5,25,24,24.4,24z M23.3,46.3h-4.5v-20h4.5V46.3z" fill="#034C8C"/>
		<path id="Path_520" d="M13.3,33H6.6c-0.6,0-1.1,0.5-1.1,1.1l0,0v13.4c0,0.6,0.5,1.1,1.1,1.1c0,0,0,0,0,0h6.7
			c0.6,0,1.1-0.5,1.1-1.1l0,0V34.1C14.4,33.5,13.9,33,13.3,33L13.3,33z M12.1,46.3H7.7V35.2h4.5V46.3z" fill="#034C8C"/>
	</g>
</g>
</svg>
