<svg xmlns="http://www.w3.org/2000/svg" viewBox="0 0 1066 1066"><defs><style>.cls-1{fill:#fff;}</style></defs><title>Ativo 1</title><g id="Camada_2" data-name="Camada 2"><g id="Camada_1-2" data-name="Camada 1"><path class="cls-1" d="M533,891.34a358.36,358.36,0,1,1,253.38-105A356,356,0,0,1,533,891.34Zm0-711.53A353.17,353.17,0,1,0,782.75,283.25,350.89,350.89,0,0,0,533,179.81Z"/><path class="cls-1" d="M1057.3,436.6q-.52-2.91-1.1-5.82-1.65-8.4-3.58-16.76c-4.43,3.5-9,7.06-13.63,10.67-46.51,36.07-102.65,76.54-150,106.07-50.5,31.55-103.05,59.9-157.63,83.77l.76-1.64-.18.11.21-.48.49-1.14c1.58-3.7,3.1-7.5,4.52-11.29l.45-1.24c2.84-7.67,5.35-15.53,7.46-23.37l.38-1.36c1-3.75,1.92-7.61,2.76-11.48l.35-1.65c1.66-7.82,3-15.86,4-23.88l.2-1.62c.34-3,.63-6,.88-9A635.25,635.25,0,0,0,813,448.56a695.09,695.09,0,0,0,47.77-86.85c25.66-55.36,44.37-113.7,58.25-173h0l.18-.81q1.18-5.06,2.31-10.1l1.76-7.69A531.38,531.38,0,0,0,533,0C239.1,0,0,239.1,0,533s239.1,533,533,533,533-239.1,533-533A537.8,537.8,0,0,0,1057.3,436.6ZM744.73,536.17c-.94,7.8-2.24,15.6-3.85,23.2l-.33,1.59c-.83,3.77-1.73,7.52-2.69,11.16l-.36,1.31c-2.06,7.62-4.5,15.26-7.25,22.72l-.44,1.2c-1.39,3.68-2.86,7.37-4.39,11l-.48,1.11c-1.54,3.57-3,6.85-4.52,10l-.23.13c-1,.56-2.09,1.13-3.21,1.71l-.39.21c-1.17.61-2.39,1.24-3.68,1.89-.58.29-1.17.58-1.77.86l-1,.52c-2.07,1-4.16,2-6.3,3-1.09.5-2.21,1-3.41,1.52-2.07.9-4.17,1.8-6.29,2.68l-.46.18c-1,.43-2,.85-3.08,1.26-2.31.92-4.67,1.82-7,2.71l-.81.3-.38.15-.31.11-1.61.61c-6.85,2.48-14.15,4.88-21.68,7.14l-3.21.94c-2.74.8-5.51,1.59-8.33,2.36-1.23.34-2.48.67-3.94,1.05q-4.05,1.08-8.2,2.11l-4,1c-3,.73-6,1.43-9.13,2.12l-3.28.75q-5.46,1.19-11,2.32l-4.09.82q-5.52,1.08-11.14,2.11l-2,.35-1,.18-3.23.55c-2.47.43-4.94.86-7.44,1.28l-.43.07-3.57.57c-3.39.54-6.8,1.07-10.25,1.59l-2.4.35-1.63.24c-3.54.52-7.12,1-10.72,1.5l2-.8c1.2-.46,2.38-.93,3.56-1.4q3.65-1.42,7.2-2.88l3.56-1.46c2.4-1,4.78-2,7.14-3l3.11-1.34q4.32-1.86,8.5-3.76l1.35-.6c3.29-1.49,6.51-3,9.69-4.51l1.95-.94c2.46-1.18,4.9-2.37,7.3-3.56L608,640.9c2.07-1,4.12-2.09,6.14-3.14l3-1.56q3-1.59,5.94-3.18c.9-.49,1.8-1,2.68-1.46,2.25-1.23,4.45-2.47,6.63-3.71l1.63-.92q4.1-2.35,8-4.72l1.36-.83q3.2-1.92,6.29-3.86c.82-.5,1.61-1,2.41-1.51l5-3.23,2.52-1.65c1.61-1.06,3.2-2.13,4.77-3.19l2.35-1.59c1.71-1.18,3.39-2.36,5.06-3.53l1.71-1.21c2.22-1.58,4.41-3.17,6.54-4.75l.81-.61q2.75-2.06,5.42-4.11l2-1.53q2.06-1.61,4.05-3.21l2.11-1.7c1.27-1,2.51-2.06,3.74-3.08l2-1.67,3.82-3.28,1.62-1.4c1.76-1.55,3.49-3.1,5.18-4.63l.26-.24q2.38-2.19,4.68-4.37l1.53-1.46q1.63-1.56,3.21-3.11l1.69-1.68c1-1,1.94-1.94,2.89-2.91l1.61-1.65c1-1,1.94-2,2.89-3l1.34-1.42c1.27-1.37,2.52-2.73,3.73-4.08l.27-.29q2-2.19,3.82-4.35c.36-.41.7-.83,1.06-1.24.87-1,1.73-2,2.56-3l1.22-1.48c.41-.49.83-1,1.22-1.48Zm-30.38,95.17c-.28.52-.58,1-.87,1.57l-.66,1.18c-1.2,2.17-2.41,4.34-3.67,6.49l-.82,1.38c-.44.75-.9,1.5-1.36,2.26l-.37.6c-1.19,2-2.39,3.91-3.63,5.87l-.46.71q-1.18,1.85-2.4,3.67h0c-1.32,2-2.67,4-4,5.95-4,5.73-7.78,10.89-11.63,15.8-4.39,5.59-9.08,11.2-14,16.69H323.38q1.71-2.22,3.41-4.5l11.53-.24,3.49-.09,9.24-.23,4.55-.12,8-.23,4.6-.15,8-.26,4.11-.15,9.36-.35,2.45-.09,11.78-.5,1.92-.09,9.51-.45,3.41-.18,7.9-.41,3.66-.2c2.57-.15,5.12-.29,7.66-.45l3.38-.2,9.17-.58L452,684l10.54-.73,2.56-.19,7.68-.58,3.49-.28,5.62-.45,34.08-3.2.49,0c10.45-1.11,20.75-2.33,30.62-3.62l2.18-.3.89-.12q5.4-.72,10.72-1.49l.68-.1,6-.88,3.13-.47,3.27-.52,6-1q5.46-.9,10.81-1.85l3-.53.11,0c3.78-.68,7.51-1.4,11.21-2.12l2.1-.4,1.9-.4c3.81-.77,7.57-1.56,11.24-2.37l3.33-.75c3.11-.7,6.2-1.41,9.24-2.15l4-1c2.81-.7,5.58-1.41,8.52-2.19l3.8-1c2.85-.78,5.66-1.58,8.45-2.4l3.27-.95c5.75-1.72,11.37-3.53,16.77-5.4q2.7-.93,5.32-1.88l2.06-.77,1.12-.42c2.44-.91,4.85-1.83,7.21-2.77l3.17-1.3.46-.18c2.18-.91,4.33-1.82,6.55-2.8,1.15-.5,2.29-1,3.41-1.52,2.21-1,4.36-2,6.48-3.07Zm31.76-110L745,522.84c-.56.75-1.11,1.49-1.69,2.24s-1,1.35-1.58,2-1.17,1.51-1.78,2.27-1.13,1.39-1.7,2.09-1.23,1.52-1.87,2.29-1.22,1.44-1.83,2.17l-2,2.29c-.64.74-1.31,1.5-2,2.24l-2,2.3c-.69.77-1.41,1.54-2.12,2.31s-1.4,1.53-2.12,2.3-1.52,1.6-2.28,2.39-1.44,1.52-2.19,2.28-1.62,1.64-2.44,2.47l-2.27,2.27c-.85.84-1.74,1.68-2.61,2.53s-1.55,1.5-2.35,2.25-1.85,1.73-2.79,2.59L705,566.38c-1,.88-2,1.77-3,2.66-.83.74-1.64,1.47-2.48,2.2-1,.91-2.13,1.83-3.2,2.74-.84.72-1.67,1.44-2.54,2.16-1.11.93-2.26,1.86-3.4,2.8l-2.6,2.13-3.61,2.85c-.89.69-1.76,1.39-2.67,2.09-1.26,1-2.56,1.94-3.85,2.91-.9.68-1.79,1.36-2.71,2-1.34,1-2.73,2-4.1,3-.92.66-1.81,1.32-2.74,2-1.45,1-2.94,2.05-4.42,3.08-.91.63-1.79,1.25-2.72,1.88-1.53,1-3.12,2.09-4.7,3.13-.92.61-1.81,1.22-2.74,1.83-1.63,1.06-3.31,2.12-5,3.17l-2.78,1.77c-1.72,1.07-3.49,2.14-5.25,3.21l-2.81,1.71c-1.83,1.1-3.72,2.19-5.6,3.28l-2.77,1.62c-1.95,1.11-4,2.22-6,3.33l-2.75,1.53c-2.11,1.16-4.27,2.3-6.44,3.45-.87.45-1.71.92-2.58,1.37-2.28,1.2-4.63,2.38-7,3.56-.81.41-1.59.82-2.4,1.22-2.54,1.27-5.14,2.53-7.75,3.78-.66.31-1.29.63-2,.95q-4.47,2.13-9.1,4.22l-.95.44q-15.37,7-32.36,13.61l-1.25.48c-3.37,1.3-6.77,2.6-10.23,3.88-1.19.44-2.42.86-3.62,1.3-2.73,1-5.45,2-8.24,3L522,668.31c-2.42.83-4.82,1.66-7.28,2.48l-4.15.42q-5.47.56-11.07,1.09l-4.49.43-5.4.47-4.92.44-5.43.44c-1.71.14-3.41.29-5.14.42s-3.67.28-5.52.42l-5.24.4-5.68.4-5.31.36-5.76.37-5.5.35-5.84.35-5.61.32-6,.32-5.78.31-6,.29-6,.28-6,.27-6.28.27-5.95.23-6.61.25-5.87.21-7,.23-5.66.17-7.6.22-5.31.15-8.35.2-4.83.11-3.85.09a368.53,368.53,0,0,0,29.08-48.29L362,632c2.49-5,5-10.35,7.31-15.81,3.92-9.1,7.45-18.47,10.48-27.85q1.4-4.36,2.67-8.75c18.79-64.83,15.06-134.48-11.09-207.11H720c4.18,10.72,7.91,21.44,11.09,31.9,3.44,11.26,6.34,22.52,8.63,33.48a319.15,319.15,0,0,1,7,64.32C746.74,508.36,746.53,514.79,746.11,521.3ZM533,1050.36C247.73,1050.36,15.64,818.27,15.64,533S247.73,15.64,533,15.64A515.82,515.82,0,0,1,906.29,174.79c-12.74,62.34-30.67,123.75-56.35,182a685.64,685.64,0,0,1-45.41,86.36,626.17,626.17,0,0,1-50.25,69.7l.14-2.87c.06-2.64.13-5.27.12-7.83a327.46,327.46,0,0,0-7.17-65.89c-2.34-11.19-5.31-22.68-8.81-34.16s-7.62-23.23-12.27-35l-1-2.47H360.15l2,5.28c27.29,72.92,31.61,142.72,12.84,207.47-.82,2.85-1.69,5.7-2.6,8.53-2.95,9.14-6.39,18.27-10.22,27.15-2.31,5.34-4.71,10.53-7.13,15.43l-.37.75a363.48,363.48,0,0,1-33,53.53c-3.1,4.19-6.24,8.29-9.34,12.18l-5.06,6.34H674l1.17-1.3c5.4-6,10.6-12.22,15.44-18.38,3.94-5,7.84-10.31,11.91-16.17,1.4-2,2.78-4.06,4.13-6.1.83-1.25,1.65-2.5,2.47-3.77l.46-.73c1.28-2,2.51-4,3.72-6l.37-.59c.47-.78,1-1.56,1.41-2.34l.84-1.42c1.3-2.22,2.54-4.44,3.77-6.67l.63-1.12c.35-.63.7-1.25,1.08-2l.2-.36c1.69-3.16,3.28-6.27,4.76-9.29C784.71,601.58,841,573,895,540.73c46.38-27.58,100.84-65.26,147.19-99.55a522.22,522.22,0,0,1,8.13,91.82C1050.36,818.27,818.27,1050.36,533,1050.36Z"/><path class="cls-1" d="M204.55,211.73a32.17,32.17,0,0,1,11.27-7.65l6,6.67a24.55,24.55,0,0,0-9.49,6.34c-5.46,5.71-8.2,13.66-1.8,19.78a11.86,11.86,0,0,0,9.54,3.56,15.3,15.3,0,0,0,9.71-5.09,22.38,22.38,0,0,0,6.13-11.22l7.28,5a34,34,0,0,1-8,13.52c-8.57,9.34-22.54,10.88-31.8,1.86C192.91,234.52,195.8,220.9,204.55,211.73Z"/><path class="cls-1" d="M260,217.78l-26.16-33.15,14.55-11.48c10.65-8.4,21.77-7.37,30,3.09,4.14,5.24,5.79,10.52,5.06,15.87s-3.72,10.09-8.92,14.19ZM247.23,185l15.5,19.65,5.8-4.58c6.35-5,6.69-11,1.64-17.35s-10.85-7.27-17.15-2.3Z"/><path class="cls-1" d="M331.65,158.07l4.37,7.4-27.24,16.12-21.5-36.34,8.83-5.22L313.23,169Z"/><path class="cls-1" d="M385.73,97.67A32.09,32.09,0,0,1,399.24,96l2.3,8.64A24.49,24.49,0,0,0,390.2,106c-7.45,2.62-13.5,8.46-10.56,16.81a11.85,11.85,0,0,0,6.89,7.5,15.25,15.25,0,0,0,11-.14,22.46,22.46,0,0,0,10.56-7.22l4.21,7.76A34.14,34.14,0,0,1,399,139.11c-11.88,4.45-25-.51-29.2-12.75C365,112.72,373.78,101.88,385.73,97.67Z"/><path class="cls-1" d="M458.84,115l-17.5,3.47-1.3,8.18-10.74,2.13,8.16-44.67,11.87-2.36L473.91,120l-10.75,2.13Zm-16.17-4.91,11.81-2.34L445.39,93Z"/><path class="cls-1" d="M510.85,74.07a32.1,32.1,0,0,1,13.46,2.08l-.17,8.94a24.39,24.39,0,0,0-11.27-1.82c-7.89.47-15.31,4.42-14.78,13.26a11.86,11.86,0,0,0,4.56,9.1,15.28,15.28,0,0,0,10.57,2.88,22.41,22.41,0,0,0,12.14-4l1.91,8.62a34,34,0,0,1-15,4.47c-12.64,1-23.92-7.38-24.56-20.3C486.81,82.84,498.2,74.83,510.85,74.07Z"/><path class="cls-1" d="M559,99.86l-1.37,17.2-10.23-.82,3.37-42.09L561,75l-1.31,16.31,18.22,1.46,1.31-16.31,10.22.82L586,119.34l-10.22-.82,1.37-17.21Z"/><path class="cls-1" d="M637.84,85.61c12.82,2.79,19.93,14.07,16.89,26.24C652,124.24,640.7,131.07,628,128c-6.45-1.51-11.26-4.72-14.44-9.58s-4-10.54-2.49-16.8C613.69,89.32,625.17,82.46,637.84,85.61Zm-15.46,27.85a11.85,11.85,0,0,0,7.84,5.36,11.25,11.25,0,0,0,9.09-1.41,12.27,12.27,0,0,0,5.25-7.93,11.85,11.85,0,0,0-1.22-9.31,11.2,11.2,0,0,0-7.53-5.29A11.68,11.68,0,0,0,621.12,104,12.29,12.29,0,0,0,622.38,113.46Z"/><path class="cls-1" d="M702.49,142.6l-3.11,8-30-11.65L684.6,99.6l29.75,11.53-3.11,8-20.19-7.83-2.83,7.31,17.87,6.93-3.11,8-17.87-6.93-3.11,8Z"/><path class="cls-1" d="M746.46,126.77l-19.25,37.58-9.13-4.67,19.25-37.59Z"/><path class="cls-1" d="M762.09,170.69l-6.6,10L746.94,175l23.28-35.23L787,150.86a16.11,16.11,0,0,1,7.27,9.91,14,14,0,0,1-2.14,11.56,15.32,15.32,0,0,1-13.52,6.72l1.27,17.71L769.58,190l-.9-14.94ZM774,152.62l-7.2,10.9,7.6,5c3.19,2.1,6.81,1.13,8.88-2s1.45-6.82-1.68-8.9Z"/><path class="cls-1" d="M838.68,190c9.92,8.58,10.77,21.89,2.28,31.12-8.29,9.59-21.52,10.17-31.23,1.34-4.94-4.41-7.63-9.53-8.09-15.32s1.57-11.14,5.85-15.94C815.7,181.73,829.06,181.2,838.68,190Zm-26.9,17.05a11.84,11.84,0,0,0,4.32,8.46,11.22,11.22,0,0,0,8.66,3.11,12.21,12.21,0,0,0,8.4-4.45,11.84,11.84,0,0,0,3.38-8.76,11.25,11.25,0,0,0-4.08-8.25,11.69,11.69,0,0,0-17.27,1A12.32,12.32,0,0,0,811.78,207.08Z"/><path class="cls-1" d="M136.18,734.42l-7.76-16.06-8.25.8-4.77-9.86,45.28-3.36L166,716.83,135.2,750.24l-4.77-9.86Zm.68-16.89,5.24,10.84,12-12.52Z"/><path class="cls-1" d="M195.09,809.8,189,802l6.57-5.13,12.36,15.8-16.2,12.67a37.83,37.83,0,0,1-13.68-10.57,28.68,28.68,0,0,1-5.85-11.92,20.5,20.5,0,0,1,7.9-20.81c11.44-8.94,24.51-3.81,32.48,6.38a34.58,34.58,0,0,1,6.44,13l-7.36,4.87A31,31,0,0,0,206,794.8c-5-6.42-12.38-10-19.45-4.51a12.11,12.11,0,0,0-5,8.69,14.1,14.1,0,0,0,3.34,9.84,19.6,19.6,0,0,0,5.15,4.94Z"/><path class="cls-1" d="M235.6,863.12l-6,6.16-23.1-22.47L236,816.55l22.87,22.24-6,6.17-15.52-15.1-5.46,5.61,13.74,13.37-6,6.16-13.74-13.37-6,6.17Z"/><path class="cls-1" d="M272.32,871.52l-15.09,20.53L249,886l25-34,7,5.16,2.17,33.52L298.4,869.9l8.27,6.07-25,34-7.13-5.24Z"/><path class="cls-1" d="M313.35,928.85l15.92-29.4-11-6,4.18-7.72,30.92,16.73-4.19,7.73-11-5.94-15.92,29.41Z"/><path class="cls-1" d="M388.38,953.26l-3.11,8-30-11.65,15.27-39.37,29.75,11.53-3.11,8L376.94,922l-2.83,7.3L392,936.21l-3.11,8L371,937.3l-3.11,8Z"/><path class="cls-1" d="M455.41,961.78l-2.85,16.7-10.11-1.72,7.09-41.62,30.33,5.16-1.45,8.48-20.21-3.45-1.36,8L472.67,956l-1.44,8.48Z"/><path class="cls-1" d="M517.46,977.65l-17.81-1-3.28,7.6-10.94-.59,18.95-41.26,12.08.65,14.38,43.07-10.94-.59ZM503,968.89l12,.65L509.86,953Z"/><path class="cls-1" d="M552.91,985.47l-.54-6.79,17.93-28.21-20.06,1.61-.7-8.7,33.52-2.69.55,6.86L565.68,975.7l20.06-1.61.7,8.7Z"/><path class="cls-1" d="M660.51,954.9l-9.35,2.75,3.38,11.49L644.71,972l-11.92-40.51L652,925.88c8.74-2.57,17.12,1.33,19.68,10S669.25,952.33,660.51,954.9Zm-15.46-18,3.69,12.52,8.61-2.53a6.2,6.2,0,0,0,4.26-8.09c-1.1-3.73-4.28-5.52-7.94-4.44Z"/><path class="cls-1" d="M707.19,937.93l4.95,10.91-9.35,4.23-17.42-38.46,18.27-8.28a16.13,16.13,0,0,1,12.26-.87,14,14,0,0,1,8.65,8,15.33,15.33,0,0,1-1.52,15l15.68,8.35-11.2,5.07-13.12-7.2Zm-8.93-19.72,5.38,11.89,8.3-3.76c3.48-1.58,4.59-5.15,3-8.58s-5-4.86-8.43-3.31Z"/><path class="cls-1" d="M780.32,902.89l-15,9.63,1.78,8.08-9.22,5.92L749.11,882l10.19-6.54L796.14,902l-9.22,5.91Zm-16.85,1.34,10.13-6.5-13.86-10.4Z"/><path class="cls-1" d="M835.72,810.92l18.66,40.82-9.56,9.36-40.55-19.4,8-7.84L842.38,849l-14.62-30.33Z"/><path class="cls-1" d="M858.59,781.77c7.82-10.54,21-12.38,30.87-4.61,10.18,7.56,11.74,20.7,3.67,31.05-4,5.25-8.94,8.32-14.68,9.21s-11.22-.73-16.33-4.64C852,805.31,850.5,792,858.59,781.77Zm19,25.54a11.78,11.78,0,0,0,8.11-4.94,11.23,11.23,0,0,0,2.46-8.86,12.27,12.27,0,0,0-5.07-8,11.82,11.82,0,0,0-9-2.71,11.2,11.2,0,0,0-7.92,4.68,11.69,11.69,0,0,0,2.28,17.15A12.3,12.3,0,0,0,877.61,807.31Z"/><path class="cls-1" d="M893.8,727.41a32.21,32.21,0,0,1,9-10.24l7.45,5a24.52,24.52,0,0,0-7.6,8.52c-3.85,6.9-4.51,15.28,3.22,19.6a11.86,11.86,0,0,0,10.13,1,15.31,15.31,0,0,0,8.12-7.36,22.45,22.45,0,0,0,3.12-12.4l8.31,3a34.25,34.25,0,0,1-4.33,15.09c-6,11.19-19.1,16.19-30.33,9.78C888.26,752.39,887.63,738.47,893.8,727.41Z"/><path class="cls-1" d="M916.29,670.43l-3,7.65-6.3,1.55,3.54,5.43-3,7.65L900,680.18l2.25-5.69Zm36.05,9.79,8,3.16-11.84,30-39.27-15.52L921,668.17l8,3.16-8,20.14,7.29,2.87,7-17.83,8,3.16-7.05,17.83,8,3.16Z"/></g></g></svg>